<svg xmlns="http://www.w3.org/2000/svg" width="860" height="780" viewBox="0 0 860 780">
  <rect width="860" height="780" fill="#ffffff"/>
  <g stroke="#111111" stroke-width="6" fill="none" stroke-linecap="round" stroke-linejoin="round">
    <path d="M126 266 H402"/>
    <path d="M652 266 H738 V635"/>
    <path d="M592 637 H266"/>
    <path d="M145 637 H92 V360"/>
    <path d="M402 266 V138 H500"/>
    <path d="M612 138 H642 V266"/>
  </g>
  <circle cx="402" cy="266" r="12" fill="#111111"/>
  <circle cx="652" cy="266" r="12" fill="#111111"/>
  <circle cx="592" cy="637" r="12" fill="#111111"/>
  <g stroke="#111111" stroke-width="7" fill="none" stroke-linecap="round">
    <circle cx="92" cy="360" r="13"/>
    <path d="M92 347 L35 470"/>
    <path d="M92 373 L92 305"/>
  </g>
  <g stroke="#111111" stroke-width="6" fill="none">
    <line x1="166" y1="598" x2="166" y2="678"/>
    <line x1="197" y1="580" x2="197" y2="696"/>
    <line x1="92" y1="637" x2="166" y2="637"/>
    <line x1="197" y1="637" x2="266" y2="637"/>
  </g>
  <rect x="432" y="242" width="150" height="48" fill="#ffffff" stroke="#111111" stroke-width="6"/>
  <rect x="390" y="618" width="170" height="42" fill="#ffffff" stroke="#111111" stroke-width="6"/>
  <path d="M474 540 V618" stroke="#111111" stroke-width="6" fill="none"/>
  <path d="M474 618 L454 575" stroke="#111111" stroke-width="6" fill="none"/>
  <circle cx="556" cy="140" r="58" fill="#ffffff" stroke="#111111" stroke-width="8"/>
  <circle cx="740" cy="466" r="52" fill="#ffffff" stroke="#111111" stroke-width="8"/>
  <text x="528" y="158" font-family="Times New Roman, serif" font-size="72" fill="#111111">V</text>
  <text x="719" y="484" font-family="Times New Roman, serif" font-size="68" fill="#111111">A</text>
  <text x="507" y="392" font-family="Times New Roman, serif" font-size="96" fill="#111111">R</text>
  <text x="364" y="598" font-family="Times New Roman, serif" font-size="92" fill="#111111">P</text>
</svg>
